<?xml version="1.0" standalone="no"?>
<!DOCTYPE svg PUBLIC "-//W3C//DTD SVG 20010904//EN"
 "http://www.w3.org/TR/2001/REC-SVG-20010904/DTD/svg10.dtd">
<svg version="1.0" xmlns="http://www.w3.org/2000/svg"
 width="501.000000pt" height="498.000000pt" viewBox="0 0 501.000000 498.000000"
 preserveAspectRatio="xMidYMid meet">

<g transform="translate(0.000000,498.000000) scale(0.100000,-0.100000)"
fill="#000000" stroke="none">
<path d="M1770 3917 l0 -423 33 -32 c18 -18 36 -32 40 -32 4 0 7 189 7 420 l0
420 1235 0 c679 0 1235 -3 1235 -7 0 -5 -413 -421 -917 -925 l-918 -918 -955
955 -956 956 -24 -26 -24 -26 979 -979 980 -980 1010 1010 1010 1010 -1368 0
-1367 0 0 -423z"/>
<path d="M1770 1795 l0 -855 713 2 712 3 3 853 c2 928 5 889 -52 821 l-26 -31
0 -789 0 -789 -635 0 -635 0 0 788 0 788 -33 32 c-18 18 -36 32 -40 32 -4 0
-7 -385 -7 -855z"/>
</g>
</svg>
